<?xml version="1.0" encoding="utf-8" ?><svg xmlns="http://www.w3.org/2000/svg" xmlns:xlink="http://www.w3.org/1999/xlink" width="528" height="472" viewBox="0 0 528 472"><path d="M246.972 39.8401C247.587 40.3046 247.736 40.7162 247.757 41.4767C247.858 45.112 247.849 48.8639 247.868 52.4917L247.871 77.1909L247.904 145.91L247.89 169.113C247.899 173.957 247.713 179.359 248.454 184.119C248.931 186.673 250.642 189.5 252.387 191.366C258.733 198.024 268.597 198.438 275.312 192.07C281.59 186.116 280.381 179.84 280.561 171.961C280.742 164.096 280.462 156.228 280.76 148.353C280.889 144.945 280.433 141.298 280.522 137.866C280.564 117.54 280.297 97.1693 280.815 76.8538C280.934 72.1862 279.954 41.4584 281.277 40.2129C281.651 40.8235 284.293 53.8683 284.829 55.7638C289.074 70.7644 296.381 84.365 304.222 97.7649C306.75 102.084 309.115 107.379 311.898 111.485L312.123 111.812C324.33 98.2212 341.383 83.6583 358.296 76.2951C357.409 80.9415 355.771 85.0399 354.989 89.0492C352.439 102.111 353.565 117.838 356.242 130.816C360.613 130.013 366.112 128.748 370.423 128.24C381.903 126.887 394.351 126.886 405.844 127.864C404.157 131.327 401.822 135.199 400.531 138.742C394.779 154.532 392.924 169.89 385.953 185.3C388.808 185.895 393.224 186.346 395.712 186.982C406.75 189.809 424.156 194.042 434.001 199.512C431.501 199.746 427.31 200.281 424.973 201.087C408.663 206.707 394.522 217.636 379.143 225.261C370.041 229.774 359.575 234.053 349.568 235.762C345.39 236.434 341.043 236.24 336.865 236.374C328.479 236.643 322.572 234.974 314.724 232.348C300.116 226.063 289.024 214.271 283.913 199.145C282.817 195.902 281.965 193.838 281.523 190.345C277.638 195.575 274.421 198.026 268.124 199.299C275.45 200.921 281.458 205.326 282.946 213.097C285.15 224.605 275.455 231.374 268.899 239.061C266.675 241.669 266.369 243.795 264.678 246.389L264.302 246.434C263.556 245.882 260.899 240.744 259.656 239.168C255.198 233.449 248.023 228.534 246.181 221.267C243.362 210.148 249.161 201.514 260.514 199.378C254.504 198.107 249.699 195.508 247.161 189.63C241.97 215.015 224.726 233.055 198.546 236.1C169.779 239.445 146.616 224.011 122.917 210.306C113.637 204.94 105.717 200.616 94.9119 199.583C100.905 195.126 124.523 189.101 132.36 187.101C134.072 186.664 140.038 185.886 142.602 185.333C135.409 171.875 133.824 152.514 127.745 138.309C127.131 136.874 123.085 128.834 123.246 128.225C127.272 126.316 152.354 127.474 157.772 128.139C161.131 128.551 168.824 130.16 172.463 130.921C173.206 127.238 173.427 123.823 173.936 120.209C175.46 109.392 175.508 100.123 173.618 89.3565C172.966 85.6398 170.706 80.1625 170.477 77.3372L170.797 77.0474C170.894 77.0444 171.369 77.0194 171.445 77.0511C186.973 83.5416 206.075 99.853 216.526 111.95C218.145 109.64 220.59 103.92 222.206 101.142C231.217 85.6526 240.085 70.3821 244.291 52.7714C245.54 47.5451 246.319 45.5133 246.972 39.8401ZM222.535 199.494C223.933 200.433 224.83 201.003 226.314 201.786C212.523 187.398 206.279 168.969 206.5 149.26C198.822 144.589 190.4 141.303 181.837 138.619C180.698 138.262 179.574 137.952 178.443 137.556C177.639 140.696 177.331 144.079 176.777 147.242C174.987 157.472 174.041 167.957 174.969 178.328C175.193 180.074 175.028 182.111 175.842 183.697C176.035 184.073 176.501 184.274 176.895 184.316C181.946 184.854 186.907 185.666 191.891 186.651C194.192 187.106 196.564 188.09 198.82 188.755C207.042 191.263 215.279 194.797 222.535 199.494ZM306.154 197.343C304.985 199.032 303.716 200.17 302.255 201.585C304.188 200.608 305.336 199.915 307.153 198.726C323.464 189.376 334.36 186.615 352.571 184.189C356.419 168.776 351.905 152.603 350.305 137.63C341.012 140.341 330.114 144.008 322.007 149.29C322.601 167.332 317.089 183.065 306.154 197.343ZM149.626 184.646C152.54 184.094 168.928 184.011 169.488 183.63C169.491 183.078 169.513 182.982 169.387 182.452C166.807 170.52 169.184 148.337 171.295 136.123C161.969 134.447 153.033 133.205 143.548 132.794C139.511 132.62 135.036 132.953 131.283 132.741C140.746 148.977 141.465 167.41 149.626 184.646ZM357.22 136.06C357.392 137.724 357.545 139.486 357.808 141.131C360.032 155.067 361.255 169.862 358.901 183.883C362.848 183.845 366.591 183.794 370.541 183.992L379.016 184.544C379.969 182.213 380.875 179.853 381.769 177.5C386.629 164.708 388.501 150.914 394.075 138.344C395.013 136.227 396.115 134.695 397.214 132.745C392.681 132.757 388.205 132.615 383.68 132.904C377.339 133.263 371.652 133.752 365.368 134.802C362.748 135.239 359.784 135.461 357.22 136.06ZM219.332 122.575C214.481 133.142 214.205 135.569 211.422 146.6C212.815 147.784 214.191 148.883 215.661 149.967C229.305 160.027 239.472 175.093 240.754 192.295C240.921 194.534 241.035 197.124 240.679 199.333C240.399 200.998 239.934 203.047 239.746 204.646C240.9 202.535 241.672 200.195 242.282 197.765C248.526 172.917 237.043 146.197 222.535 126.347C222.008 125.625 219.946 122.928 219.332 122.575ZM243.756 163.095C243.99 160.278 243.965 158.389 243.849 155.62C244.003 154.716 243.922 153.173 243.905 152.205C243.505 125.146 244.354 97.6405 243.902 70.6399C240.612 86.4627 230.635 101.497 222.955 115.474C222.518 116.27 221.646 118.005 222.282 118.871C225.955 123.873 229.614 129.128 232.711 134.51C234.979 138.45 236.733 142.88 238.729 146.97C239.515 148.617 240.305 151.528 241.046 152.925C241.432 154.372 241.792 155.965 242.407 157.319C242.877 159.24 243.327 161.165 243.756 163.095ZM288.079 199.839C287.421 195.982 287.764 191.298 288.374 187.395C290.601 173.143 299.33 160.868 310.292 151.863C313.122 149.538 317.49 148.197 316.643 144.306C315.77 140.292 311.624 125.133 308.838 122.631C293.704 142.588 282.247 165.867 284.842 191.676C285.167 194.916 287.102 201.867 288.797 204.586C288.712 204.032 288.061 200.134 288.079 199.839ZM210.843 152.184C210.746 155.779 210.627 159.762 211.106 163.313C213.336 179.823 221.702 194.49 233.406 206.142C234.004 206.738 234.96 207.905 235.736 208.148C236.272 207.645 236.293 207.287 236.489 206.577C242.47 186.902 231 167.871 216.019 155.716C214.596 154.562 212.551 152.843 210.843 152.184ZM225.827 222.56C223.319 223.751 220.876 225.097 218.294 226.315C204.504 230.751 189.856 229.516 176.753 223.197C161.095 215.646 153.129 204.527 144.587 190.076C139.584 191.524 133.025 192.199 127.605 193.813C122.908 195.212 117.397 197.308 112.883 198.471C141.571 208.196 164.945 235.057 197.341 232.945C204.618 232.498 211.735 230.619 218.284 227.416L218.662 227.228C221.245 225.993 223.654 224.424 225.827 222.56ZM292.255 207.926L292.718 208.184C293.635 207.84 295.118 205.887 295.965 205.059C302.765 198.406 308.213 190.355 312.132 181.656C315.691 173.933 317.584 165.548 317.689 157.045C317.695 155.912 317.784 153.713 317.518 152.683C317.006 152.519 317.23 152.526 316.855 152.564C314.529 153.906 312.897 155.447 310.85 157.106C297.007 168.323 285.422 189.919 292.255 207.926ZM376.9 189.171C373.864 189.373 369.22 188.74 365.984 188.628C363.984 188.559 359.914 188.717 358.16 188.527C357.82 189.011 356.009 194.123 355.688 194.986C348.353 214.705 329.529 225.728 308.847 221.565C307.753 221.345 300.608 218.633 300.703 218.617C301.185 219.955 306.397 222.403 307.748 223.088C310.275 224.371 313.138 224.934 315.879 225.655C336.913 229.525 357.521 218.539 369.634 201.75C372.706 197.492 374.605 193.825 376.9 189.171ZM226.041 220.249C227.179 219.526 228.464 218.584 229.586 217.802C228.084 218.139 227.11 218.614 225.813 219.447C216.097 223.443 205.193 223.426 195.49 219.399C184.951 215.043 176.964 205.823 173.009 195.343C172.164 193.104 171.17 191.003 170.621 188.652C163.671 188.632 158.57 188.95 151.758 189.203C156.283 201.875 168.793 214.586 180.723 220.584C194.692 227.608 212.423 229.279 226.041 220.249ZM293.852 210.831C296.414 213.357 298.237 214.532 301.227 216.439C308.689 220.4 317.409 221.269 325.506 218.858C339.467 214.572 347.437 202.241 351.63 189.059C350.472 189.171 349.311 189.256 348.149 189.315C330.149 190.649 307.868 199.415 293.852 210.831ZM302.633 222.673C313.749 230.77 326.799 234.189 340.622 232.656C340.835 232.633 341.004 232.588 341.206 232.54C352.787 232.534 370.46 222.837 380.466 217.04C391.617 210.579 403.113 201.935 415.74 198.525C411.536 197.419 407.389 195.726 403.233 194.459C400.987 193.779 384.328 189.379 383.687 190.574C372.739 210.974 355.055 227.114 330.846 228.72C323.459 229.282 316.344 228.842 309.454 225.898C307.275 224.967 304.67 223.454 302.633 222.673ZM321.417 140.155L321.776 143.946C325.208 142.19 328.636 140.07 332.185 138.655C337.662 136.471 343.595 134.109 349.23 132.43C347.134 119.346 345.518 101.758 349.986 89.0063C350.224 88.3262 350.217 88.6375 350.108 87.9252L349.6 87.8904C341.459 90.9874 319.518 109.045 314.146 116.408L314.241 116.701C315.056 119.123 316.334 121.404 317.237 123.875C319.167 129.16 320.537 134.602 321.417 140.155ZM284.431 71.6178C284.641 80.5571 284.532 90.2398 284.326 99.1986C283.84 120.335 284.897 141.834 284.433 162.907C286.211 157.278 287.534 151.77 289.945 146.323C291.661 143.041 292.978 139.652 294.735 136.385C298.334 129.689 302.315 124.006 306.85 117.95C300.956 106.34 293.309 95.5333 288.452 83.2452C287.706 81.3592 285.273 72.3345 284.431 71.6178ZM176.963 188.918C178.197 196.47 184.079 205.547 189.51 210.856C199.594 220.713 217.638 223.862 229.39 214.943C230.978 213.914 233.068 212.604 234.2 211.093L234.219 210.601C231.292 208.029 226.994 205.349 223.619 203.365C211.544 196.268 197.853 191.663 184.008 189.635C181.691 189.296 179.291 189.234 176.963 188.918ZM178.313 87.5845L178.367 87.8246C178.762 89.5226 179.917 92.8101 180.116 94.207C181.673 105.13 181.591 121.77 179.292 132.495C185.062 134.042 192.404 136.865 197.882 139.333C200.886 140.686 203.684 142.488 206.843 143.795C206.712 141.745 206.95 141.151 207.244 139.151C208.205 134.03 209.027 129.77 210.823 124.846C211.801 122.166 213.51 118.766 214.224 116.201C205.226 106.406 194.426 96.9568 183.02 90.0551C182.169 89.5401 179.108 87.8619 178.313 87.5845Z"/><path fill="#D8D6D7" fill-opacity="0.011764706" d="M302.633 222.673C304.67 223.454 307.275 224.967 309.454 225.898C316.344 228.842 323.459 229.282 330.846 228.72C329.166 230.613 323.533 229.405 320.801 229.664L321.087 229.609L320.844 229.901C325.086 231.176 329.424 231.812 333.85 231.946C336.182 232.017 339.178 230.843 341.206 232.54C341.004 232.588 340.835 232.633 340.622 232.656C326.799 234.189 313.749 230.77 302.633 222.673Z"/><path fill="#6A6B6B" fill-opacity="0.011764706" d="M241.046 152.925C242.008 149.517 240.494 149.847 240.527 147.704C241.943 148.308 241.391 150.662 242.566 152.391C243.367 152.677 242.936 152.651 243.905 152.205C243.922 153.173 244.003 154.716 243.849 155.62L243.506 157.219C243.341 156.582 243.344 156.458 243.306 155.794L242.609 155.707C242.375 156.104 242.583 156.609 242.407 157.319C241.792 155.965 241.432 154.372 241.046 152.925Z"/><path fill="#D8D6D7" fill-opacity="0.031372551" d="M225.827 222.56C223.654 224.424 221.245 225.993 218.662 227.228L218.294 226.315C220.876 225.097 223.319 223.751 225.827 222.56Z"/><path fill="#D8D6D7" fill-opacity="0.011764706" d="M302.255 201.585C303.716 200.17 304.985 199.032 306.154 197.343C306.464 198.179 306.511 198.152 307.153 198.726C305.336 199.915 304.188 200.608 302.255 201.585Z"/><path fill="#D8D6D7" fill-opacity="0.11372549" d="M225.813 219.447C227.11 218.614 228.084 218.139 229.586 217.802C228.464 218.584 227.179 219.526 226.041 220.249L225.813 219.447Z"/><path d="M318.636 273.976C329.027 272.573 338.603 279.82 340.074 290.201C341.545 300.582 334.359 310.203 323.987 311.742C313.519 313.294 303.787 306.029 302.303 295.552C300.818 285.074 308.148 275.392 318.636 273.976ZM322.07 309.083C337.612 306.373 336.046 276.351 320.488 276.364C316.19 277.599 314.388 278.818 311.947 282.663C306.636 291.032 309.465 309.664 322.07 309.083Z"/><path d="M136.452 321.479L309.155 321.51L365.278 321.51L381.7 321.515C384.516 321.506 389.979 320.99 392.306 322.047C393.347 323.259 392.902 324.12 391.916 325.22L246.695 325.236L170.071 325.249C159.936 325.251 149.798 325.143 139.668 325.344C136.795 325.401 134.389 324.668 136.452 321.479Z"/><path d="M136.402 260.972C142.447 260.793 149.077 260.925 155.156 260.926L188.673 260.915L291.868 260.923L359.194 260.919L381.438 260.946C383.796 260.954 391.348 260.233 392.766 261.892C393.031 262.85 392.78 263.797 391.912 264.302C368.607 263.88 344.084 264.246 320.689 264.246L184.087 264.247L148.438 264.189C145.02 264.177 139.973 264.736 136.584 264.043C136.015 263.927 135.835 263.373 135.652 262.878C135.782 261.862 135.81 261.834 136.402 260.972Z"/><path d="M209.032 275.132C211.051 275.061 223.041 275.113 224.595 275.366L224.668 275.807C223.652 276.752 221.964 276.425 220.78 277.482C220.056 279.622 219.598 287.495 220.363 290.004C220.557 290.639 221.005 290.67 221.497 290.785C223.403 290.246 231.266 281.285 233.054 279.222C233.578 278.617 233.696 278.033 233.532 277.274C232.581 276.622 232.129 276.528 232.174 275.338C233.812 274.962 236.686 275.159 238.43 275.268C239.971 275.364 243.822 274.566 244.753 275.754C244.022 276.44 238.749 278.092 238.017 278.656C235.477 280.615 228.348 287.237 227.231 289.698C227.301 291.257 237.629 303.644 239.36 305.559C241.778 308.563 241.688 307.684 245.294 309.459C245.948 309.78 245.986 309.795 246.142 310.324C244.565 311.322 234.434 310.762 232.157 310.919C231.417 310.97 231.26 310.764 230.925 310.335L231.092 309.709C231.782 308.886 232.022 308.896 233.06 308.612L233.259 308.179C233.186 308.01 233.11 307.818 233.021 307.653C231.917 305.608 223.027 293.809 221.31 293.462C220.884 293.376 220.806 293.565 220.482 293.797C219.822 295.293 220.115 306.06 220.333 308.278C221.444 308.554 224.104 309.056 224.785 309.83L224.697 310.429C223.749 311.213 210.393 311.24 209.228 310.325L209.316 309.862C210.012 309.263 210.155 309.164 211.024 308.929L213.321 308.288C214.298 303.106 213.721 294.919 213.887 289.536C213.814 286.343 214.006 283.009 213.733 279.848C213.351 275.418 209.335 277.868 209.032 275.132Z"/><path d="M384.97 300.725C384.341 293.946 385.629 286.734 384.458 279.893C383.678 275.336 379.688 277.348 379.6 275.353C380.141 275.074 390.27 275.268 391.739 275.24C391.333 276.213 388.035 277.69 387.653 279.143C386.587 283.192 388.112 310.231 386.904 311.55C385.949 311.639 386.399 311.723 385.519 311.222C384.005 309.222 381.317 306.348 379.596 304.359C375.684 299.756 371.705 295.211 367.659 290.725C365.775 288.644 361.659 284.523 360.376 282.505C361.387 290.148 359.265 300.028 361.315 307.628C361.766 309.303 364.325 308.037 365.242 310.346L365.006 310.738C363.651 311.086 354.239 311.146 353.172 310.153L353.319 309.689C353.877 309.249 356.302 308.501 357.251 308.139C358.341 304.137 358.294 283.168 357.29 278.84C355.769 277.619 352.911 276.868 352.253 275.699L352.552 275.161C355.501 275.091 359.873 275.036 362.741 275.292C363.687 276.359 364.592 277.568 365.457 278.704C371.444 286.572 377.867 293.848 384.97 300.725Z"/><path d="M180.04 274.366C182.97 273.764 187.297 274.682 190.097 275.591C190.616 277.155 191.523 281.478 190.986 283.005L190.526 283.018C187.644 280.904 186.737 276.412 182.045 276.222C178.348 276.073 174.446 279.097 175.043 282.966C176.052 289.497 186.931 289.337 190.954 293.619C192.718 295.235 193.987 297.246 193.973 299.786C193.913 310.058 186.333 311.526 178.278 311.512C172.129 311.512 168.552 309.926 168.277 303.257C168.223 301.944 168.107 301.264 168.987 300.249C170.081 300.368 171.04 303.39 171.946 304.732C172.624 305.727 173.456 306.607 174.412 307.339C176.509 308.94 179.175 309.601 181.777 309.164C184.664 308.686 185.717 307.534 187.31 305.426C188.907 295.098 179.462 296.719 173.32 292.018C171.222 290.412 169.649 288.736 169.327 285.958C168.462 278.502 173.357 275.223 180.04 274.366Z"/><path d="M274.442 274.145C277.856 273.906 283.163 274.603 286.452 275.649C287.955 276.127 288.098 283.246 287.338 284.351C286.538 283.911 285.332 281.508 284.682 280.646C280.959 275.713 275.392 275.208 270.061 277.838C261.554 282.034 260.316 293.312 264.029 301.206C267.329 308.221 275.034 311.45 282.265 307.821C284.552 306.445 287.054 301.503 288.375 301.578C289.546 303.778 287.487 307.781 286.384 309.746C284.185 310.808 282.771 311.032 280.376 311.372C268.927 312.923 256.511 308.94 255.083 295.919C253.623 282.597 261.649 275.295 274.442 274.145Z"/><path d="M136.781 275.162C140.196 274.909 147.917 275.201 151.795 275.153C152.341 276.83 148.193 276.588 147.763 278.409C146.801 282.478 146.697 305.495 147.928 308.001C149.791 309.693 151.496 307.961 152.299 310.739C150.366 311.013 136.928 311.207 136.12 310.106C136.839 309.131 140.783 308.642 140.81 307.638C141.06 298.542 141.479 287.22 140.633 278.166C140.511 276.853 137.916 276.842 136.458 276.026L136.361 275.587L136.781 275.162Z"/><path d="M313.89 354.026C315.192 353.98 316.516 354.032 317.82 354.062C321.123 358.272 325.008 366.56 328.567 370.963C328.052 365.87 328.808 359.564 328.259 354.169C329.536 354.029 330.81 354.038 332.095 354.017C332.15 360.223 332.393 370.824 331.922 376.757C330.656 377.408 329.248 376.981 327.775 376.777C326.01 372.97 320.208 364.511 317.545 360.013C317.619 362.649 318.283 375.377 317.098 376.855C316.233 376.939 314.959 377.062 314.211 376.539C313.624 376.128 314.095 356.567 313.912 354.279L313.89 354.026Z"/><path d="M278.519 354.025C279.894 353.964 282.052 353.607 282.735 355.106C285.939 362.149 287.756 370.003 291.221 376.93L286.822 376.988C286.171 374.828 285.539 373.063 284.754 370.965L282.369 370.958L275.732 370.991C275.067 372.359 274.266 375.066 273.672 376.677C272.147 376.828 270.636 377.138 269.129 377.417C271.016 372.788 272.952 368.395 274.615 363.647C275.478 361.183 277.045 355.775 278.519 354.025ZM276.487 368.02L279.92 368.04L284.046 367.961C283.075 366.235 280.57 358.724 280.291 358.486C279.141 361.693 278.034 364.983 276.487 368.02Z"/><path d="M211.191 353.662C212.478 354.014 213.393 353.945 214.71 353.938C214.827 354.887 214.906 355.84 214.946 356.795C215.13 361.488 216.116 371.501 212.678 375.007C209.303 378.45 201.457 378.08 198.197 374.626C195.427 371.691 196.399 364.733 196.443 360.96C196.463 359.271 196.095 355.171 197.007 354.214C200.543 352.957 199.892 355.322 200.125 357.504C200.669 362.588 197.616 373.886 205.166 374.522C207.188 374.692 208.887 373.548 210.232 372.307C211.76 366.458 210.127 359.151 211.191 353.662Z"/><path d="M406.002 274.347C408.471 273.869 411.007 274.754 412.643 276.664C414.279 278.575 414.763 281.216 413.91 283.582C413.058 285.948 411 287.674 408.522 288.103C404.743 288.756 401.143 286.244 400.452 282.472C399.761 278.7 402.237 275.076 406.002 274.347ZM402.071 283.991C403.209 286.154 405.55 287.406 407.982 287.153C410.486 286.892 412.559 285.09 413.165 282.646C413.771 280.203 412.781 277.641 410.689 276.24C409.526 275.461 408.126 275.114 406.733 275.262C404.762 275.47 403.022 276.642 402.088 278.391C401.154 280.139 401.147 282.237 402.071 283.991Z"/><path d="M404.67 277.372C407.247 278.01 405.905 279.552 408.375 278.062C409.286 278.106 408.869 277.982 409.663 278.485C409.967 279.482 409.228 280.432 409.019 281.464C408.684 283.121 411.054 283.576 410.633 285.205C409.734 285.347 410.195 285.347 409.2 284.973C408.663 284.038 407.812 282.132 406.705 282.051C406.245 283.481 407.028 283.991 406.682 285.164C406.057 285.385 404.999 285.34 404.548 284.811L404.654 284.506C405.624 281.582 404.504 279.966 404.67 277.372Z"/><path d="M234.527 353.916L237.876 354.11C237.944 357.104 237.949 360.696 238.056 363.706C238.325 371.316 238.165 379.396 227.775 377.006C226.046 376.608 225.324 375.362 224.591 373.867C224.168 372.844 223.505 370.194 224.048 369.183C225.42 368.881 226.221 368.436 227.353 369.409C227.512 371.323 228.427 374.095 230.16 374.709C234.575 375.92 234.041 368.636 234.146 366.272C234.287 363.078 233.595 356.687 234.527 353.916Z"/><path d="M257.968 353.581C262.407 353.296 260.816 357.632 260.958 360.846C261.327 369.236 262.45 382.335 248.932 375.964C248.304 375.039 248.052 374.354 247.614 373.337C246.829 371.615 246.367 370.143 247.992 368.731C251.397 367.604 251.387 371.814 251.952 373.605C252.663 375.863 255.476 374.149 256.783 373.288C256.859 373.081 256.936 372.875 257.012 372.668L257.109 372.382C258.055 369.63 257.662 357.83 257.968 353.581Z"/><path d="M299.432 354.044C300.405 354.047 302.109 353.926 302.857 354.479C303.192 357.069 303.315 375.202 302.841 376.941C301.682 376.969 300.151 377.033 299.175 376.444C299.037 373.262 298.894 355.783 299.432 354.044Z"/></svg>